<svg width="40" height="24" viewBox="0 0 40 24" fill="none" xmlns="http://www.w3.org/2000/svg">
<path d="M31.3125 5.89246C31.479 5.79621 31.479 5.55585 31.3125 5.4596L27.8947 3.48369C27.728 3.38734 27.5196 3.50761 27.5196 3.70012V7.65194C27.5196 7.84445 27.728 7.96473 27.8947 7.86837L31.3125 5.89246Z" fill="#159789"/>
<path fill-rule="evenodd" clip-rule="evenodd" d="M21.6333 0.274185C21.2201 0.274185 20.8852 0.609148 20.8852 1.02234V10.2518C20.8852 10.665 21.2201 11 21.6333 11H36.5817C36.9949 11 37.3298 10.665 37.3298 10.2518V1.02234C37.3298 0.609147 36.9949 0.274185 36.5817 0.274185H21.6333ZM21.8815 10.0037V1.2705H36.3335V10.0037H21.8815Z" fill="#159789"/>
<path d="M31.3125 18.6183C31.479 18.522 31.479 18.2817 31.3125 18.1854L27.8947 16.2095C27.728 16.1132 27.5196 16.2334 27.5196 16.4259V20.3778C27.5196 20.5703 27.728 20.6905 27.8947 20.5942L31.3125 18.6183Z" fill="#159789"/>
<path fill-rule="evenodd" clip-rule="evenodd" d="M21.6333 13C21.2201 13 20.8852 13.335 20.8852 13.7482V22.9777C20.8852 23.3909 21.2201 23.7258 21.6333 23.7258H36.5817C36.9949 23.7258 37.3298 23.3909 37.3298 22.9777V13.7482C37.3298 13.335 36.9949 13 36.5817 13H21.6333ZM21.8815 22.7295V13.9963H36.3335V22.7295H21.8815Z" fill="#159789"/>
<path d="M13.0975 5.89246C13.264 5.79621 13.264 5.55585 13.0975 5.4596L9.67968 3.48369C9.51301 3.38734 9.30456 3.50761 9.30456 3.70012V7.65194C9.30456 7.84445 9.51301 7.96473 9.67968 7.86837L13.0975 5.89246Z" fill="#159789"/>
<path fill-rule="evenodd" clip-rule="evenodd" d="M3.41831 0.274185C3.00511 0.274185 2.67015 0.609148 2.67015 1.02234V10.2518C2.67015 10.665 3.00511 11 3.41831 11H18.3667C18.7799 11 19.1148 10.665 19.1148 10.2518V1.02234C19.1148 0.609147 18.7799 0.274185 18.3667 0.274185H3.41831ZM3.66647 10.0037V1.2705H18.1185V10.0037H3.66647Z" fill="#159789"/>
<path d="M13.0975 18.6183C13.264 18.522 13.264 18.2817 13.0975 18.1854L9.67968 16.2095C9.51301 16.1132 9.30456 16.2334 9.30456 16.4259V20.3778C9.30456 20.5703 9.51301 20.6905 9.67968 20.5942L13.0975 18.6183Z" fill="#159789"/>
<path fill-rule="evenodd" clip-rule="evenodd" d="M3.41831 13C3.00511 13 2.67015 13.335 2.67015 13.7482V22.9777C2.67015 23.3909 3.00511 23.7258 3.41831 23.7258H18.3667C18.7799 23.7258 19.1148 23.3909 19.1148 22.9777V13.7482C19.1148 13.335 18.7799 13 18.3667 13H3.41831ZM3.66647 22.7295V13.9963H18.1185V22.7295H3.66647Z" fill="#159789"/>
</svg>
