<svg width="32" height="24" viewBox="0 0 32 24" fill="none" xmlns="http://www.w3.org/2000/svg">
<path d="M6.87188 8.16212H8.47941V12.2044H11.1116V13.5299H6.87188V8.16212Z" fill="#159789"/>
<path d="M13.5934 8.16212H11.9295V13.5299H13.5934V8.16212Z" fill="#159789"/>
<path d="M14.2609 8.16212H16L17.2033 12.0258L18.3878 8.16212H20.0705L18.0776 13.5299H16.282L14.2609 8.16212Z" fill="#159789"/>
<path d="M25.0529 8.16212H20.6064V13.5299H25.0905V12.3173H22.2703V11.255H24.8085V10.1645H22.2327V9.30901H25.0529V8.16212Z" fill="#159789"/>
<path fill-rule="evenodd" clip-rule="evenodd" d="M30.3737 19.7627C30.5333 19.7627 30.6863 19.6993 30.7992 19.5864C30.912 19.4736 30.9754 19.3206 30.9754 19.161V1.2432C30.9754 1.08364 30.912 0.930605 30.7992 0.817774C30.6863 0.704943 30.5333 0.641556 30.3737 0.641556H1.62627C1.4667 0.641556 1.31367 0.704943 1.20084 0.817774C1.08801 0.930605 1.02462 1.08364 1.02462 1.2432V19.1704C1.02462 19.33 1.08801 19.483 1.20084 19.5958C1.31367 19.7087 1.4667 19.7721 1.62627 19.7721H15.3984V22.1599H11.2056C11.1209 22.1492 11.035 22.1567 10.9534 22.1818C10.8718 22.207 10.7966 22.2492 10.7326 22.3056C10.6686 22.3621 10.6173 22.4315 10.5822 22.5093C10.5471 22.5871 10.5289 22.6715 10.5289 22.7568C10.5289 22.8421 10.5471 22.9265 10.5822 23.0043C10.6173 23.0821 10.6686 23.1515 10.7326 23.208C10.7966 23.2644 10.8718 23.3066 10.9534 23.3318C11.035 23.3569 11.1209 23.3644 11.2056 23.3537H20.7944C20.8791 23.3644 20.965 23.3569 21.0466 23.3318C21.1282 23.3066 21.2034 23.2644 21.2674 23.208C21.3314 23.1515 21.3827 23.0821 21.4178 23.0043C21.4529 22.9265 21.4711 22.8421 21.4711 22.7568C21.4711 22.6715 21.4529 22.5871 21.4178 22.5093C21.3827 22.4315 21.3314 22.3621 21.2674 22.3056C21.2034 22.2492 21.1282 22.207 21.0466 22.1818C20.965 22.1567 20.8791 22.1492 20.7944 22.1599H16.6016V19.7627H30.3737ZM2.22791 18.5688V1.83545H29.7721V18.5688H2.22791Z" fill="#159789"/>
</svg>
