<svg width="40" height="24" viewBox="0 0 40 24" fill="none" xmlns="http://www.w3.org/2000/svg">
<path fill-rule="evenodd" clip-rule="evenodd" d="M10.9066 0.126984C8.03132 0.126984 5.85623 2.96085 5.85623 6.3135C5.85623 9.66591 8.02817 12.5 10.9066 12.5C11.9257 12.5 12.8551 12.0203 13.7476 11.3814C14.0281 11.1806 14.122 10.8268 14.0185 10.5245C13.8047 9.90026 13.6909 9.24579 13.6818 8.58533C13.6825 6.70305 14.2654 5.195 15.1213 3.68131C15.2349 3.48037 15.2553 3.22725 15.1502 3.00121C14.367 1.31744 12.6778 0.126984 10.9066 0.126984ZM6.85623 6.3135C6.85623 3.30033 8.77471 1.12698 10.9066 1.12698C12.2003 1.12698 13.5233 1.99184 14.186 3.30458C13.3137 4.87185 12.6818 6.52294 12.6818 8.58869L12.6819 8.59534C12.6912 9.30141 12.8037 10.0016 13.0151 10.6739C12.2392 11.2082 11.566 11.5 10.9066 11.5C8.77193 11.5 6.85623 9.32689 6.85623 6.3135Z" fill="#159789"/>
<path fill-rule="evenodd" clip-rule="evenodd" d="M29.1023 0.126984C27.3375 0.126984 25.6392 1.31687 24.8581 3.00218C24.7536 3.22772 24.7739 3.48 24.8869 3.68043C25.7408 5.19514 26.3264 6.70328 26.3271 8.58533C26.3179 9.24616 26.2041 9.901 25.9901 10.5255C25.887 10.8262 25.9792 11.1785 26.2575 11.38C27.1428 12.021 28.0726 12.5 29.1023 12.5C31.9776 12.5 34.1527 9.66614 34.1527 6.3135C34.1527 2.96062 31.9744 0.126984 29.1023 0.126984ZM27.3271 8.58869C27.3271 6.52238 26.6921 4.87115 25.8225 3.30458C26.4831 1.99276 27.8133 1.12698 29.1023 1.12698C31.2314 1.12698 33.1527 3.30056 33.1527 6.3135C33.1527 9.32666 31.2342 11.5 29.1023 11.5C28.4322 11.5 27.7581 11.2079 26.9932 10.676C27.205 10.003 27.3176 9.30212 27.327 8.59534L27.3271 8.58869Z" fill="#159789"/>
<path fill-rule="evenodd" clip-rule="evenodd" d="M20.0015 2.39921C17.1147 2.39921 14.9511 5.27786 14.9511 8.58573C14.9511 11.8936 17.1147 14.7722 20.0015 14.7722C22.8883 14.7722 25.0519 11.8936 25.0519 8.58573C25.0519 5.27809 22.8914 2.39921 20.0015 2.39921ZM15.9511 8.58573C15.9511 5.61084 17.8633 3.39921 20.0015 3.39921C22.1425 3.39921 24.0519 5.61061 24.0519 8.58573C24.0519 11.5606 22.1397 13.7722 20.0015 13.7722C17.8633 13.7722 15.9511 11.5606 15.9511 8.58573Z" fill="#159789"/>
<path fill-rule="evenodd" clip-rule="evenodd" d="M6.51748 11.6695C6.38911 11.5228 6.21138 11.4761 6.0494 11.5067C3.58229 11.7733 1.30286 13.7595 1.30286 16.5504V20.8449C1.30286 21.2591 1.63865 21.5949 2.05286 21.5949H8.37549C8.78971 21.5949 9.12549 21.2591 9.12549 20.8449L9.12551 18.8226L9.12547 18.818C9.11832 18.041 9.26541 17.2702 9.55822 16.5504C9.79123 15.9775 10.1128 15.446 10.5104 14.975C10.8903 14.5248 10.6434 13.8151 10.0612 13.7032C8.69089 13.4399 7.44211 12.7265 6.51748 11.6695ZM6.63968 11.9993C6.63968 12.1834 6.54952 12.3273 6.42191 12.4125C6.554 12.3219 6.63968 12.1699 6.63968 11.9993ZM2.30286 16.5504C2.30286 14.4358 3.9816 12.8352 5.94705 12.5286C6.9158 13.5563 8.15935 14.2769 9.52281 14.6091C9.15935 15.0882 8.85952 15.6141 8.63192 16.1736C8.28956 17.0152 8.11744 17.9164 8.12549 18.8249V20.5949H2.30286V16.5504Z" fill="#159789"/>
<path fill-rule="evenodd" clip-rule="evenodd" d="M24.9452 13.7894C24.7102 13.76 24.4869 13.846 24.3312 13.9986C23.0407 15.2631 21.6088 16.0474 20.0015 16.0474C18.3939 16.0474 16.962 15.2656 15.6722 13.9991C15.5165 13.8463 15.2928 13.76 15.0575 13.7894C12.6257 14.0933 10.4066 16.0691 10.4066 18.8226V23.123C10.4066 23.5372 10.7424 23.873 11.1566 23.873H28.8523C29.2665 23.873 29.6023 23.5372 29.6023 23.123V18.8226C29.6023 16.0652 27.3762 14.0929 24.9452 13.7894ZM20.0015 17.0474C21.921 17.0474 23.5613 16.1244 24.9427 14.7985C26.9161 15.0999 28.6023 16.7028 28.6023 18.8226V22.873H11.4066V18.8226C11.4066 16.7049 13.0881 15.1001 15.0599 14.7986C16.442 16.1274 18.0823 17.0474 20.0015 17.0474Z" fill="#159789"/>
<path fill-rule="evenodd" clip-rule="evenodd" d="M33.4825 11.6695C33.6109 11.5228 33.7886 11.4761 33.9506 11.5067C36.4177 11.7733 38.6971 13.7595 38.6971 16.5504V20.8449C38.6971 21.2591 38.3614 21.5949 37.9471 21.5949H31.6245C31.2103 21.5949 30.8745 21.2591 30.8745 20.8449L30.8745 18.8226L30.8745 18.818C30.8817 18.041 30.7346 17.2702 30.4418 16.5504C30.2088 15.9775 29.8872 15.446 29.4896 14.975C29.1097 14.5248 29.3566 13.8151 29.9388 13.7032C31.3091 13.4399 32.5579 12.7265 33.4825 11.6695ZM33.3603 11.9993C33.3603 12.1834 33.4505 12.3273 33.5781 12.4125C33.446 12.3219 33.3603 12.1699 33.3603 11.9993ZM37.6971 16.5504C37.6971 14.4358 36.0184 12.8352 34.053 12.5286C33.0842 13.5563 31.8407 14.2769 30.4772 14.6091C30.8407 15.0882 31.1405 15.6141 31.3681 16.1736C31.7104 17.0152 31.8826 17.9164 31.8745 18.8249V20.5949H37.6971V16.5504Z" fill="#159789"/>
</svg>
