<svg width="32" height="24" viewBox="0 0 32 24" fill="none" xmlns="http://www.w3.org/2000/svg">
<path d="M26.9863 6.42109C26.8761 6.45633 26.759 6.46471 26.6449 6.44553C26.5308 6.46471 26.4138 6.45633 26.3036 6.42109C26.1933 6.38586 26.0932 6.32478 26.0113 6.24296C25.9295 6.16114 25.8684 6.06095 25.8332 5.95074C25.798 5.84053 25.7896 5.72349 25.8088 5.60938C25.8088 5.49957 25.8304 5.39084 25.8724 5.28939C25.9144 5.18795 25.976 5.09577 26.0537 5.01813C26.1313 4.94048 26.2235 4.87889 26.3249 4.83687C26.4264 4.79485 26.5351 4.77322 26.6449 4.77322C26.7547 4.77322 26.8635 4.79485 26.9649 4.83687C27.0664 4.87889 27.1585 4.94048 27.2362 5.01813C27.3138 5.09577 27.3754 5.18795 27.4174 5.28939C27.4595 5.39084 27.4811 5.49957 27.4811 5.60938C27.5003 5.72349 27.4919 5.84053 27.4566 5.95074C27.4214 6.06095 27.3603 6.16114 27.2785 6.24296C27.1967 6.32478 27.0965 6.38586 26.9863 6.42109Z" fill="#159789"/>
<path fill-rule="evenodd" clip-rule="evenodd" d="M28.7767 0.509735H3.22333C2.81466 0.512146 2.42342 0.675557 2.13445 0.964531C1.84548 1.25351 1.68206 1.64475 1.67965 2.05341V7.73193C1.67965 8.14134 1.84229 8.53398 2.13179 8.82347C2.42128 9.11297 2.81392 9.27561 3.22333 9.27561H28.7767C29.1853 9.2732 29.5766 9.10978 29.8656 8.82081C30.1545 8.53183 30.3179 8.14059 30.3203 7.73193V2.0626C30.3204 1.65234 30.158 1.25875 29.8688 0.967794C29.5795 0.676839 29.1869 0.512163 28.7767 0.509735ZM2.63526 2.0626C2.63763 1.90981 2.69938 1.76394 2.80743 1.65589C2.91548 1.54784 3.06135 1.48609 3.21414 1.48372H28.7767C28.9295 1.48609 29.0753 1.54784 29.1834 1.65589C29.2914 1.76394 29.3532 1.90981 29.3555 2.0626V7.74112C29.3532 7.89391 29.2914 8.03978 29.1834 8.14783C29.0753 8.25588 28.9295 8.31763 28.7767 8.32H3.22333C3.07054 8.31763 2.92467 8.25588 2.81662 8.14783C2.70857 8.03978 2.64682 7.89391 2.64445 7.74112L2.63526 2.0626Z" fill="#159789"/>
<path fill-rule="evenodd" clip-rule="evenodd" d="M15.9954 19.2268C16.4421 19.225 16.8782 19.0909 17.2487 18.8414C17.6192 18.5919 17.9075 18.2383 18.0772 17.8251C18.2468 17.4119 18.2903 16.9577 18.202 16.5198C18.1138 16.082 17.8978 15.6801 17.5813 15.3649C17.2648 15.0497 16.862 14.8353 16.4238 14.7488C15.9856 14.6623 15.5316 14.7076 15.1191 14.879C14.7066 15.0503 14.3541 15.3401 14.1061 15.7116C13.8582 16.0831 13.7258 16.5197 13.7258 16.9664C13.7258 17.264 13.7846 17.5587 13.8988 17.8336C14.0129 18.1084 14.1803 18.358 14.3911 18.568C14.602 18.778 14.8523 18.9443 15.1276 19.0574C15.4029 19.1704 15.6978 19.228 15.9954 19.2268ZM15.9954 15.68C16.2516 15.68 16.5021 15.756 16.7152 15.8984C16.9282 16.0407 17.0943 16.2431 17.1924 16.4798C17.2904 16.7165 17.3161 16.977 17.2661 17.2284C17.2161 17.4797 17.0927 17.7105 16.9115 17.8917C16.7303 18.0729 16.4995 18.1963 16.2482 18.2463C15.9968 18.2963 15.7363 18.2706 15.4996 18.1726C15.2629 18.0745 15.0605 17.9085 14.9182 17.6954C14.7758 17.4823 14.6998 17.2318 14.6998 16.9756C14.6986 16.8047 14.7312 16.6352 14.7958 16.477C14.8604 16.3187 14.9556 16.1748 15.076 16.0535C15.1965 15.9323 15.3397 15.836 15.4975 15.7703C15.6553 15.7046 15.8245 15.6708 15.9954 15.6708V15.68Z" fill="#159789"/>
<path fill-rule="evenodd" clip-rule="evenodd" d="M19.68 16.9664C19.68 16.2395 19.4645 15.5289 19.0606 14.9245C18.6567 14.32 18.0827 13.849 17.4111 13.5708C16.7395 13.2926 16.0005 13.2198 15.2876 13.3616C14.5746 13.5034 13.9197 13.8535 13.4057 14.3675C12.8917 14.8815 12.5416 15.5364 12.3998 16.2494C12.258 16.9623 12.3308 17.7013 12.609 18.3729C12.8871 19.0445 13.3582 19.6186 13.9626 20.0224C14.5671 20.4263 15.2777 20.6418 16.0046 20.6418C16.9794 20.6418 17.9142 20.2546 18.6035 19.5653C19.2928 18.8761 19.68 17.9412 19.68 16.9664ZM16.0046 14.2099C16.5498 14.2099 17.0827 14.3715 17.5361 14.6744C17.9894 14.9773 18.3427 15.4078 18.5513 15.9115C18.76 16.4152 18.8146 16.9695 18.7082 17.5042C18.6018 18.0389 18.3393 18.5301 17.9538 18.9156C17.5683 19.3011 17.0771 19.5637 16.5424 19.67C16.0077 19.7764 15.4534 19.7218 14.9497 19.5131C14.446 19.3045 14.0155 18.9512 13.7126 18.4979C13.4097 18.0446 13.248 17.5116 13.248 16.9664C13.2601 16.2449 13.5545 15.5569 14.0682 15.0501C14.5819 14.5433 15.2738 14.2581 15.9954 14.2558L16.0046 14.2099Z" fill="#159789"/>
<path fill-rule="evenodd" clip-rule="evenodd" d="M5.35507 9.74422H26.6449C26.7555 9.743 26.8652 9.76373 26.9677 9.80521C27.0702 9.84669 27.1635 9.90808 27.2421 9.98585C27.3208 10.0636 27.3832 10.1562 27.4258 10.2583C27.4684 10.3603 27.4903 10.4698 27.4903 10.5804V12.0046C27.4903 15.0508 26.2802 17.9722 24.1262 20.1262C21.9722 22.2802 19.0508 23.4903 16.0046 23.4903C12.9584 23.4903 10.037 22.2802 7.88299 20.1262C5.72901 17.9722 4.51891 15.0508 4.51891 12.0046V10.5804C4.51891 10.3586 4.60701 10.1459 4.76382 9.98912C4.92063 9.83231 5.13331 9.74422 5.35507 9.74422ZM21.8026 16.9664V20.7797C23.2528 19.8202 24.4414 18.5149 25.2611 16.9813C26.0808 15.4478 26.5059 13.7343 26.4979 11.9954V10.6998H5.45614V11.9954C5.45218 13.7376 5.88283 15.4533 6.70911 16.9872C7.53538 18.521 8.73119 19.8245 10.1882 20.7797V16.9664C10.1882 16.2038 10.3385 15.4487 10.6303 14.7441C10.9221 14.0396 11.3499 13.3994 11.8891 12.8601C12.4284 12.3209 13.0685 11.8931 13.7731 11.6013C14.4777 11.3095 15.2328 11.1593 15.9954 11.1593C16.758 11.1593 17.5132 11.3095 18.2177 11.6013C18.9223 11.8931 19.5624 12.3209 20.1017 12.8601C20.6409 13.3994 21.0687 14.0396 21.3605 14.7441C21.6524 15.4487 21.8026 16.2038 21.8026 16.9664ZM12.5713 13.5423C11.6632 14.4505 11.153 15.6821 11.153 16.9664V21.3585C12.6507 22.128 14.3117 22.5252 15.9954 22.5163C17.6785 22.5195 19.3382 22.1226 20.8378 21.3585V16.9664C20.8378 15.6821 20.3276 14.4505 19.4195 13.5423C18.5114 12.6342 17.2797 12.1241 15.9954 12.1241C14.7111 12.1241 13.4795 12.6342 12.5713 13.5423Z" fill="#159789"/>
</svg>
