<svg width="102" height="77" viewBox="0 0 102 77" fill="none" xmlns="http://www.w3.org/2000/svg">
<path fill-rule="evenodd" clip-rule="evenodd" d="M1.97482 0.777588C1.42254 0.777588 0.974823 1.2253 0.974823 1.77759V75.7942C0.974823 76.3465 1.42254 76.7942 1.97483 76.7942H100.641C101.193 76.7942 101.641 76.3465 101.641 75.7942V1.77759C101.641 1.2253 101.193 0.777588 100.641 0.777588H1.97482ZM95.6407 6.77759H54.3078V19.6979C63.2763 21.1345 70.1286 28.9075 70.1286 38.2809C70.1286 47.6543 63.2763 55.4273 54.3078 56.8639V70.7942H95.6407V57.6067H77.2169C76.6646 57.6067 76.2169 57.159 76.2169 56.6067V20.9651C76.2169 20.4128 76.6646 19.9651 77.2169 19.9651H95.6407V6.77759ZM95.6407 25.9651H82.2169V51.6067H95.6407V25.9651ZM48.3078 6.77759V19.6979C39.3392 21.1345 32.4869 28.9075 32.4869 38.2809C32.4869 47.6543 39.3392 55.4273 48.3078 56.8639V70.7942H6.97482V57.6067H25.3986C25.9509 57.6067 26.3986 57.159 26.3986 56.6067V20.9651C26.3986 20.4128 25.9509 19.9651 25.3986 19.9651H6.97482V6.77759H48.3078ZM6.97482 25.9651V51.6067H20.3986V25.9651H6.97482Z" fill="black"/>
<path d="M64.7528 38.0029C65.0531 38.2005 65.0531 38.6409 64.7528 38.8385L45.338 51.6057C45.0055 51.8243 44.5632 51.5858 44.5632 51.1879L44.5632 25.6535C44.5632 25.2556 45.0055 25.0171 45.338 25.2357L64.7528 38.0029Z" fill="white"/>
</svg>
